<mxfile host="app.diagrams.net" modified="2023-03-23T08:38:34.144Z" agent="5.0 (Windows NT 10.0; Win64; x64) AppleWebKit/537.36 (KHTML, like Gecko) Chrome/111.0.0.0 Safari/537.36" etag="ydI2NuuKiZ20f4RWotfw" version="21.0.10" type="github">
  <diagram name="Strona-1" id="rC9ybD66L3H1U-JytUDO">
    <mxGraphModel dx="1434" dy="796" grid="1" gridSize="10" guides="1" tooltips="1" connect="1" arrows="1" fold="1" page="1" pageScale="1" pageWidth="827" pageHeight="1169" math="0" shadow="0">
      <root>
        <mxCell id="0" />
        <mxCell id="1" parent="0" />
        <mxCell id="maNHu3a0PN-zEvDWR-1t-1" value="START" style="ellipse;whiteSpace=wrap;html=1;" vertex="1" parent="1">
          <mxGeometry x="310" y="20" width="120" height="80" as="geometry" />
        </mxCell>
        <mxCell id="maNHu3a0PN-zEvDWR-1t-2" value="" style="endArrow=classic;html=1;rounded=0;exitX=0.5;exitY=1;exitDx=0;exitDy=0;" edge="1" parent="1" source="maNHu3a0PN-zEvDWR-1t-1">
          <mxGeometry width="50" height="50" relative="1" as="geometry">
            <mxPoint x="390" y="430" as="sourcePoint" />
            <mxPoint x="370" y="130" as="targetPoint" />
          </mxGeometry>
        </mxCell>
        <mxCell id="maNHu3a0PN-zEvDWR-1t-4" value="Pobierz:x" style="shape=parallelogram;perimeter=parallelogramPerimeter;whiteSpace=wrap;html=1;fixedSize=1;" vertex="1" parent="1">
          <mxGeometry x="310" y="130" width="120" height="60" as="geometry" />
        </mxCell>
        <mxCell id="maNHu3a0PN-zEvDWR-1t-5" value="" style="endArrow=classic;html=1;rounded=0;exitX=0.417;exitY=1;exitDx=0;exitDy=0;exitPerimeter=0;" edge="1" parent="1" source="maNHu3a0PN-zEvDWR-1t-4" target="maNHu3a0PN-zEvDWR-1t-6">
          <mxGeometry width="50" height="50" relative="1" as="geometry">
            <mxPoint x="390" y="430" as="sourcePoint" />
            <mxPoint x="360" y="240" as="targetPoint" />
          </mxGeometry>
        </mxCell>
        <mxCell id="maNHu3a0PN-zEvDWR-1t-9" style="edgeStyle=orthogonalEdgeStyle;rounded=0;orthogonalLoop=1;jettySize=auto;html=1;exitX=0;exitY=0.5;exitDx=0;exitDy=0;entryX=0.5;entryY=0;entryDx=0;entryDy=0;" edge="1" parent="1" source="maNHu3a0PN-zEvDWR-1t-6" target="maNHu3a0PN-zEvDWR-1t-7">
          <mxGeometry relative="1" as="geometry" />
        </mxCell>
        <mxCell id="maNHu3a0PN-zEvDWR-1t-12" style="edgeStyle=orthogonalEdgeStyle;rounded=0;orthogonalLoop=1;jettySize=auto;html=1;entryX=0.5;entryY=0;entryDx=0;entryDy=0;" edge="1" parent="1" source="maNHu3a0PN-zEvDWR-1t-6" target="maNHu3a0PN-zEvDWR-1t-11">
          <mxGeometry relative="1" as="geometry" />
        </mxCell>
        <mxCell id="maNHu3a0PN-zEvDWR-1t-6" value="x&amp;gt;=0" style="rhombus;whiteSpace=wrap;html=1;" vertex="1" parent="1">
          <mxGeometry x="320" y="240" width="80" height="80" as="geometry" />
        </mxCell>
        <mxCell id="maNHu3a0PN-zEvDWR-1t-16" style="edgeStyle=orthogonalEdgeStyle;rounded=0;orthogonalLoop=1;jettySize=auto;html=1;entryX=0;entryY=0.5;entryDx=0;entryDy=0;" edge="1" parent="1" source="maNHu3a0PN-zEvDWR-1t-7" target="maNHu3a0PN-zEvDWR-1t-14">
          <mxGeometry relative="1" as="geometry" />
        </mxCell>
        <mxCell id="maNHu3a0PN-zEvDWR-1t-7" value="w=x" style="rounded=0;whiteSpace=wrap;html=1;" vertex="1" parent="1">
          <mxGeometry x="140" y="330" width="120" height="60" as="geometry" />
        </mxCell>
        <mxCell id="maNHu3a0PN-zEvDWR-1t-10" value="Tak" style="text;html=1;align=center;verticalAlign=middle;resizable=0;points=[];autosize=1;strokeColor=none;fillColor=none;" vertex="1" parent="1">
          <mxGeometry x="230" y="255" width="40" height="30" as="geometry" />
        </mxCell>
        <mxCell id="maNHu3a0PN-zEvDWR-1t-17" style="edgeStyle=orthogonalEdgeStyle;rounded=0;orthogonalLoop=1;jettySize=auto;html=1;entryX=1;entryY=0.5;entryDx=0;entryDy=0;" edge="1" parent="1" source="maNHu3a0PN-zEvDWR-1t-11" target="maNHu3a0PN-zEvDWR-1t-14">
          <mxGeometry relative="1" as="geometry" />
        </mxCell>
        <mxCell id="maNHu3a0PN-zEvDWR-1t-11" value="w=-x" style="rounded=0;whiteSpace=wrap;html=1;" vertex="1" parent="1">
          <mxGeometry x="460" y="330" width="120" height="60" as="geometry" />
        </mxCell>
        <mxCell id="maNHu3a0PN-zEvDWR-1t-13" value="nie" style="text;html=1;align=center;verticalAlign=middle;resizable=0;points=[];autosize=1;strokeColor=none;fillColor=none;" vertex="1" parent="1">
          <mxGeometry x="440" y="255" width="40" height="30" as="geometry" />
        </mxCell>
        <mxCell id="maNHu3a0PN-zEvDWR-1t-19" style="edgeStyle=orthogonalEdgeStyle;rounded=0;orthogonalLoop=1;jettySize=auto;html=1;entryX=0.5;entryY=0;entryDx=0;entryDy=0;" edge="1" parent="1" source="maNHu3a0PN-zEvDWR-1t-14" target="maNHu3a0PN-zEvDWR-1t-18">
          <mxGeometry relative="1" as="geometry" />
        </mxCell>
        <mxCell id="maNHu3a0PN-zEvDWR-1t-14" value="Wpisz w" style="shape=parallelogram;perimeter=parallelogramPerimeter;whiteSpace=wrap;html=1;fixedSize=1;" vertex="1" parent="1">
          <mxGeometry x="294" y="420" width="120" height="60" as="geometry" />
        </mxCell>
        <mxCell id="maNHu3a0PN-zEvDWR-1t-18" value="STOP" style="ellipse;whiteSpace=wrap;html=1;" vertex="1" parent="1">
          <mxGeometry x="294" y="530" width="120" height="80" as="geometry" />
        </mxCell>
      </root>
    </mxGraphModel>
  </diagram>
</mxfile>
